<?xml version="1.0" encoding="utf-8"?>
<!-- Generator: Adobe Illustrator 24.0.1, SVG Export Plug-In . SVG Version: 6.00 Build 0)  -->
<svg version="1.1" id="Layer_1" xmlns="http://www.w3.org/2000/svg" xmlns:xlink="http://www.w3.org/1999/xlink" x="0px" y="0px"
	 viewBox="0 0 200 200" style="enable-background:new 0 0 200 200;" xml:space="preserve">
<style type="text/css">
	.st0{fill:#FF0000;}
	.st1{fill:#FFFFFF;}
</style>
<g>
	<g>
		<path class="st1" d="M164.3,10H35.7C21.5,10,10,21.5,10,35.7v128.6c0,14.2,11.5,25.6,25.7,25.7h128.6c14.2,0,25.6-11.5,25.7-25.7
			V35.7C190,21.5,178.5,10,164.3,10z M58,120.9c-3.2,0.6-6.3,0.5-9.1-0.4v0.1c-1.6-0.5-3.2-1.3-4.6-2.4c-0.8-0.6-1.6-1.3-2.4-2.1
			c0,0-0.1,0-0.1,0c0,1.1,0,8.6,0,12.2c0,4.4-3.5,8-7.9,8.2h-1.2c0,0,0-29.7,0-37.5c0.1-10.9,9.1-18.9,17.7-20.2
			c12-1.8,20.6,5.7,23.5,13.6C78.9,106.4,69.5,118.8,58,120.9z M116.2,87.8c-2.2,0-4,1-5.6,2.4c-2.3,2-3.9,4.4-5.5,6.9
			c-2.5,3.8-4.7,7.9-7.3,11.7c-2.1,3-4.2,6-7.2,8.3c-3.3,2.7-7,4.2-11.4,4.2c-0.1,0-0.1,0-0.2,0v-9.1c2.9,0,5-1.5,6.8-3.4
			c2.4-2.4,4.1-5.3,5.9-8.1c2.7-4.2,5.1-8.6,8.2-12.6c2.3-3,4.8-5.7,8.2-7.5c2.5-1.3,5.1-2,8-2V87.8z M158.3,121.3
			c0-6.6,0-15,0-19.9c0-1.7,0-3.4-0.5-5.1c-1.5-4.3-4.3-7.2-8.8-8.3c-4.6-1.1-8.6,0.1-11.9,3.6c-2.2,2.3-3.3,5.1-3.2,8.3
			c0.1,5.3,0,14.3,0,21.3h-9.1c0-8.9,0-57.9,0-57.9h1.2c4.3,0.2,7.9,3.9,7.9,8.2c0,3.8,0,11.9,0,12.3c0.9-0.8,1.7-1.5,2.5-2.2
			c3.5-2.5,7.3-3.5,11.6-3.1c8.9,0.8,16.6,7.3,18.8,16c0.4,1.6,0.6,3.3,0.6,5c0,5.4,0,14.5,0,21.6H158.3z"/>
	</g>
	<path class="st1" d="M54.2,87.7C47,87.6,42,93.8,41.6,99.1c-0.5,7.1,5.7,13.3,12.3,13.1c6.5,0.1,12.2-5.6,12.2-12.2
		C66.1,93.3,60.4,87.8,54.2,87.7z"/>
</g>
</svg>
